<svg data-v-fde0c5aa="" xmlns="http://www.w3.org/2000/svg" viewBox="0 0 300 300" class="iconLeftSlogan"><!----><defs data-v-fde0c5aa=""><!----></defs><rect data-v-fde0c5aa="" fill="#FAF1EE" x="0" y="0" width="300px" height="300px" class="logo-background-square"></rect><defs data-v-fde0c5aa=""><!----></defs><g data-v-fde0c5aa="" id="53a457a9-d563-4940-a04b-a384a4f58f0f" fill="#2F1911" transform="matrix(2.561416365713336,0,0,2.561416365713336,112.6929467692836,127.92292208175031)"><path d="M0.46 0C0.18 0-0.04 0.22-0.04 0.50L-0.04 8.93C-0.04 9.21 0.18 9.44 0.46 9.44L0.85 9.44C1.12 9.44 1.36 9.21 1.36 8.93L1.36 5.40L2.93 5.40C3.21 5.40 3.43 5.18 3.43 4.90L3.43 4.52C3.43 4.24 3.21 4.02 2.93 4.02L1.36 4.02L1.36 1.39L3.49 1.39C3.77 1.39 3.99 1.16 3.99 0.88L3.99 0.50C3.99 0.22 3.77 0 3.49 0ZM4.37 6.69C4.37 7.80 4.68 8.44 5.11 8.88C5.57 9.32 6.16 9.44 6.66 9.44C7.18 9.44 7.77 9.32 8.23 8.88C8.67 8.44 8.96 7.80 8.96 6.69L8.96 2.73C8.96 0.95 8.20 0 6.66 0C5.14 0 4.37 0.97 4.37 2.73ZM5.77 2.73C5.77 1.82 6.05 1.39 6.66 1.39C7.27 1.39 7.56 1.79 7.56 2.73L7.56 6.69C7.56 7.64 7.25 8.05 6.66 8.05C6.06 8.05 5.77 7.62 5.77 6.69ZM10.05 6.69C10.05 7.80 10.36 8.44 10.79 8.88C11.26 9.32 11.84 9.44 12.35 9.44C12.87 9.44 13.45 9.32 13.92 8.88C14.35 8.44 14.64 7.80 14.64 6.69L14.64 2.73C14.64 0.95 13.89 0 12.35 0C10.82 0 10.05 0.97 10.05 2.73ZM11.45 2.73C11.45 1.82 11.73 1.39 12.35 1.39C12.95 1.39 13.24 1.79 13.24 2.73L13.24 6.69C13.24 7.64 12.94 8.05 12.35 8.05C11.75 8.05 11.45 7.62 11.45 6.69ZM17.70 9.44C19.38 9.44 20.16 8.48 20.16 6.66L20.16 2.77C20.16 0.95 19.38 0 17.70 0L16.27 0C15.99 0 15.76 0.22 15.76 0.50L15.76 8.93C15.76 9.21 15.99 9.44 16.27 9.44ZM17.70 1.39C18.44 1.39 18.75 1.83 18.75 2.77L18.75 6.66C18.75 7.60 18.44 8.05 17.70 8.05L17.15 8.05L17.15 1.39ZM25.66 0.38C25.61 0.17 25.38-0.01 25.17-0.01L24.78-0.01C24.43-0.01 24.21 0.28 24.29 0.60L26.28 9.03C26.32 9.25 26.54 9.42 26.77 9.42L27.06 9.42C27.27 9.42 27.50 9.25 27.55 9.03L29.54 0.60C29.61 0.28 29.39-0.01 29.05-0.01L28.64-0.01C28.43-0.01 28.20 0.17 28.15 0.38L26.91 5.71ZM31.68 0.50C31.68 0.22 31.44 0 31.18 0L30.79 0C30.51 0 30.28 0.22 30.28 0.50L30.28 8.93C30.28 9.21 30.51 9.44 30.79 9.44L31.18 9.44C31.44 9.44 31.68 9.21 31.68 8.93ZM36.53 8.55C36.53 8.27 36.30 8.05 36.02 8.05L33.94 8.05L33.94 0.50C33.94 0.22 33.71 0 33.45 0L33.04 0C32.76 0 32.54 0.22 32.54 0.50L32.54 8.93C32.54 9.21 32.76 9.44 33.04 9.44L36.02 9.44C36.30 9.44 36.53 9.21 36.53 8.93ZM41.22 8.55C41.22 8.27 40.99 8.05 40.71 8.05L38.63 8.05L38.63 0.50C38.63 0.22 38.40 0 38.14 0L37.73 0C37.45 0 37.23 0.22 37.23 0.50L37.23 8.93C37.23 9.21 37.45 9.44 37.73 9.44L40.71 9.44C40.99 9.44 41.22 9.21 41.22 8.93ZM45.82 9.04C45.88 9.25 46.10 9.44 46.31 9.44L46.72 9.44C47.05 9.44 47.28 9.14 47.21 8.82L45.28 0.39C45.23 0.18 45.00 0 44.79 0L44.48 0C44.27 0 44.04 0.18 43.99 0.39L42.71 5.87L42.04 8.83C41.97 9.16 42.20 9.44 42.53 9.44L42.94 9.44C43.15 9.44 43.37 9.25 43.43 9.04L43.92 6.86L45.35 6.86ZM44.63 3.23C44.90 4.42 44.87 4.80 45.02 5.47L44.24 5.47ZM50.58 4.70C49.76 4.70 49.80 6.10 50.58 6.10L51.07 6.10L51.07 6.71C51.07 7.62 50.78 8.05 50.18 8.05C49.56 8.05 49.27 7.62 49.27 6.71C49.27 6.34 49.27 4.94 49.27 2.72C49.27 2.07 49.39 1.74 49.59 1.57C49.74 1.41 49.98 1.39 50.18 1.39C50.37 1.39 50.60 1.41 50.76 1.57C50.93 1.72 51.07 2.06 51.07 2.72L51.07 2.91C51.07 3.19 51.30 3.42 51.58 3.42L51.98 3.42C52.25 3.42 52.47 3.19 52.47 2.91L52.47 2.72C52.47 0.94 51.72 0 50.18 0C48.64 0 47.87 0.94 47.87 2.72L47.87 6.71C47.87 8.47 48.64 9.44 50.18 9.44C51.72 9.44 52.47 8.48 52.47 6.71L52.47 5.21C52.47 4.93 52.25 4.70 51.98 4.70L50.58 4.70ZM53.98 0C53.70 0 53.48 0.22 53.48 0.50L53.48 8.93C53.48 9.21 53.70 9.44 53.98 9.44L57.01 9.44C57.29 9.44 57.51 9.21 57.51 8.93L57.51 8.55C57.51 8.27 57.29 8.05 57.01 8.05L54.87 8.05L54.87 5.40L56.63 5.40C56.91 5.40 57.13 5.18 57.13 4.90L57.13 4.52C57.13 4.24 56.91 4.02 56.63 4.02L54.87 4.02L54.87 1.39L57.01 1.39C57.29 1.39 57.51 1.16 57.51 0.88L57.51 0.50C57.51 0.22 57.29 0 57.01 0Z"></path></g><defs data-v-fde0c5aa=""><linearGradient data-v-fde0c5aa="" gradientTransform="rotate(25)" id="74dee36c-f612-47c9-9a4e-342d54fb46d5" x1="0%" y1="0%" x2="100%" y2="0%"><stop data-v-fde0c5aa="" offset="0%" stop-color="#B82949" stop-opacity="1"></stop><stop data-v-fde0c5aa="" offset="100%" stop-color="#E9B84C" stop-opacity="1"></stop></linearGradient></defs><g data-v-fde0c5aa="" id="5f02e586-abbf-440f-ac79-cbe92bd76ddd" stroke="none" fill="url(#74dee36c-f612-47c9-9a4e-342d54fb46d5)" transform="matrix(1.862202815856348,0,0,1.862202815856348,40,118.1563315824662)"><circle cx="25.044" cy="25.043" r="6.956"></circle><circle cx="6.956" cy="25.043" r="6.956"></circle><path d="M.172 2.201H13.74v13.568H.172zM18.432 2.201H32v13.568H18.432z"></path></g><defs data-v-fde0c5aa=""><!----></defs><g data-v-fde0c5aa="" id="fff7c6ce-197c-408d-bd78-a49622f8d6e5" fill="#2F1911" transform="matrix(0.5044815322873889,0,0,0.5044815322873889,112.31302525863117,161.0432809140274)"><path d="M5.11 2.10C2.32 2.10 0.55 4.21 0.55 6.85C0.55 9.48 2.25 11.59 5.08 11.59C6.76 11.59 7.85 10.74 8.44 9.84L8.44 11.48L9.41 11.48L9.41 6.55L5.05 6.55L5.05 7.50L8.44 7.50C8.44 9.44 6.85 10.57 5.17 10.57C2.91 10.57 1.60 8.93 1.60 6.85C1.60 4.76 2.94 3.12 5.19 3.12C6.61 3.12 7.62 3.74 8.18 4.73L9.32 4.73C8.64 3.18 7.10 2.10 5.11 2.10ZM22.37 2.10C19.56 2.10 17.67 4.21 17.67 6.85C17.67 9.48 19.56 11.59 22.37 11.59C25.19 11.59 27.08 9.48 27.08 6.85C27.08 4.21 25.19 2.10 22.37 2.10ZM22.37 10.57C20.12 10.57 18.72 8.93 18.72 6.85C18.72 4.76 20.12 3.12 22.37 3.12C24.63 3.12 26.03 4.76 26.03 6.85C26.03 8.93 24.63 10.57 22.37 10.57ZM39.87 2.10C37.06 2.10 35.17 4.21 35.17 6.85C35.17 9.48 37.06 11.59 39.87 11.59C42.69 11.59 44.58 9.48 44.58 6.85C44.58 4.21 42.69 2.10 39.87 2.10ZM39.87 10.57C37.62 10.57 36.22 8.93 36.22 6.85C36.22 4.76 37.62 3.12 39.87 3.12C42.13 3.12 43.53 4.76 43.53 6.85C43.53 8.93 42.13 10.57 39.87 10.57ZM57.16 2.21L53.26 2.21L53.26 11.48L57.16 11.48C59.37 11.48 61.42 9.74 61.42 6.85C61.42 3.95 59.37 2.21 57.16 2.21ZM57.12 10.49L54.31 10.49L54.31 3.21L57.12 3.21C59.09 3.21 60.37 4.86 60.37 6.85C60.37 8.83 59.09 10.49 57.12 10.49ZM86.79 3.22L86.79 2.21L80.09 2.21L80.09 11.48L81.14 11.48L81.14 7.46L86.17 7.46L86.17 6.44L81.14 6.44L81.14 3.22ZM99.37 2.10C96.56 2.10 94.67 4.21 94.67 6.85C94.67 9.48 96.56 11.59 99.37 11.59C102.19 11.59 104.08 9.48 104.08 6.85C104.08 4.21 102.19 2.10 99.37 2.10ZM99.37 10.57C97.12 10.57 95.72 8.93 95.72 6.85C95.72 4.76 97.12 3.12 99.37 3.12C101.63 3.12 103.03 4.76 103.03 6.85C103.03 8.93 101.63 10.57 99.37 10.57ZM116.87 2.10C114.06 2.10 112.17 4.21 112.17 6.85C112.17 9.48 114.06 11.59 116.87 11.59C119.69 11.59 121.58 9.48 121.58 6.85C121.58 4.21 119.69 2.10 116.87 2.10ZM116.87 10.57C114.62 10.57 113.22 8.93 113.22 6.85C113.22 4.76 114.62 3.12 116.87 3.12C119.13 3.12 120.53 4.76 120.53 6.85C120.53 8.93 119.13 10.57 116.87 10.57ZM134.16 2.21L130.26 2.21L130.26 11.48L134.16 11.48C136.37 11.48 138.42 9.74 138.42 6.85C138.42 3.95 136.37 2.21 134.16 2.21ZM134.12 10.49L131.31 10.49L131.31 3.21L134.12 3.21C136.09 3.21 137.37 4.86 137.37 6.85C137.37 8.83 136.09 10.49 134.12 10.49ZM145.99 13.34L146.94 13.34L148.18 10.36L146.80 10.36ZM171.01 2.10C168.22 2.10 166.45 4.21 166.45 6.85C166.45 9.48 168.15 11.59 170.98 11.59C172.66 11.59 173.75 10.74 174.34 9.84L174.34 11.48L175.31 11.48L175.31 6.55L170.95 6.55L170.95 7.50L174.34 7.50C174.34 9.44 172.75 10.57 171.07 10.57C168.81 10.57 167.50 8.93 167.50 6.85C167.50 4.76 168.84 3.12 171.09 3.12C172.51 3.12 173.52 3.74 174.08 4.73L175.22 4.73C174.54 3.18 173.00 2.10 171.01 2.10ZM188.27 2.10C185.46 2.10 183.57 4.21 183.57 6.85C183.57 9.48 185.46 11.59 188.27 11.59C191.09 11.59 192.98 9.48 192.98 6.85C192.98 4.21 191.09 2.10 188.27 2.10ZM188.27 10.57C186.02 10.57 184.62 8.93 184.62 6.85C184.62 4.76 186.02 3.12 188.27 3.12C190.53 3.12 191.93 4.76 191.93 6.85C191.93 8.93 190.53 10.57 188.27 10.57ZM205.77 2.10C202.96 2.10 201.07 4.21 201.07 6.85C201.07 9.48 202.96 11.59 205.77 11.59C208.59 11.59 210.48 9.48 210.48 6.85C210.48 4.21 208.59 2.10 205.77 2.10ZM205.77 10.57C203.52 10.57 202.12 8.93 202.12 6.85C202.12 4.76 203.52 3.12 205.77 3.12C208.03 3.12 209.43 4.76 209.43 6.85C209.43 8.93 208.03 10.57 205.77 10.57ZM223.06 2.21L219.16 2.21L219.16 11.48L223.06 11.48C225.27 11.48 227.32 9.74 227.32 6.85C227.32 3.95 225.27 2.21 223.06 2.21ZM223.02 10.49L220.21 10.49L220.21 3.21L223.02 3.21C224.99 3.21 226.27 4.86 226.27 6.85C226.27 8.83 224.99 10.49 223.02 10.49ZM245.99 2.21L245.99 11.48L252.10 11.48L252.10 10.47L247.04 10.47L247.04 2.21ZM261.51 2.21L260.46 2.21L260.46 11.48L261.51 11.48ZM277.47 3.22L277.47 2.21L270.77 2.21L270.77 11.48L271.82 11.48L271.82 7.46L276.85 7.46L276.85 6.44L271.82 6.44L271.82 3.22ZM292.75 3.22L292.75 2.21L285.94 2.21L285.94 11.48L292.75 11.48L292.75 10.47L286.99 10.47L286.99 7.35L292.14 7.35L292.14 6.33L286.99 6.33L286.99 3.22Z"></path></g></svg>