<svg data-v-423bf9ae="" xmlns="http://www.w3.org/2000/svg" viewBox="0 0 1373.6766620062447 193" class="fontAboveSlogan"><!----><!----><!----><g data-v-423bf9ae="" id="9c566b2a-d1f8-4b42-9b72-a85919bc5cfa" fill="#1F1E1A" transform="matrix(8.92857107378189,0,0,8.92857107378189,362.01286512897065,-31.542856063161665)"><path d="M1.37 13.65L2.59 13.65L2.59 9.52L6.36 9.52L6.36 8.44L2.59 8.44L2.59 5.47L6.94 5.47L6.94 4.40L1.37 4.40ZM10.78 13.85C12.87 13.85 13.75 12.32 13.75 10.33C13.75 8.25 12.75 7.03 10.78 7.03C8.74 7.03 7.78 8.44 7.78 10.33C7.78 12.47 8.67 13.85 10.78 13.85ZM10.78 12.92C9.62 12.92 8.99 12.08 8.99 10.47C8.99 8.88 9.62 7.95 10.78 7.95C11.93 7.95 12.54 8.85 12.54 10.47C12.54 11.96 11.93 12.92 10.78 12.92ZM18.12 13.85C20.20 13.85 21.08 12.32 21.08 10.33C21.08 8.25 20.09 7.03 18.12 7.03C16.07 7.03 15.12 8.44 15.12 10.33C15.12 12.47 16.00 13.85 18.12 13.85ZM18.12 12.92C16.95 12.92 16.32 12.08 16.32 10.47C16.32 8.88 16.95 7.95 18.12 7.95C19.26 7.95 19.88 8.85 19.88 10.47C19.88 11.96 19.26 12.92 18.12 12.92ZM27.33 13.65L28.28 13.65L28.28 3.60L27.16 3.60L27.16 7.76C26.77 7.32 26.11 7.03 25.27 7.03C23.39 7.03 22.46 8.50 22.46 10.54C22.46 12.10 23.03 13.85 25.03 13.85C26.14 13.85 26.87 13.34 27.24 12.63ZM25.27 12.92C23.86 12.92 23.66 11.48 23.66 10.47C23.66 8.85 24.16 7.95 25.37 7.95C26.92 7.95 27.16 9.38 27.16 10.26C27.16 11.68 26.56 12.92 25.27 12.92ZM36.55 13.65L37.48 13.65L41.06 4.40L39.83 4.40L37.58 10.28C37.37 10.79 37.20 11.44 37.06 11.96C36.92 11.44 36.72 10.78 36.54 10.28L34.30 4.40L32.96 4.40ZM42.21 5.00C42.21 5.43 42.53 5.75 42.97 5.75C43.39 5.75 43.72 5.43 43.72 5.00C43.72 4.58 43.39 4.24 42.97 4.24C42.53 4.24 42.21 4.58 42.21 5.00ZM42.42 13.65L43.54 13.65L43.54 7.22L42.42 7.22ZM45.70 13.65L46.82 13.65L46.82 3.60L45.70 3.60ZM48.97 13.65L50.09 13.65L50.09 3.60L48.97 3.60ZM57.47 13.75L57.69 12.77C56.84 12.92 56.90 12.42 56.90 11.91L56.90 9.37C56.90 7.74 56.22 7.03 54.57 7.03C52.71 7.03 51.86 7.81 52.01 9.04L53.12 9.24C53.05 8.29 53.62 7.95 54.49 7.95C55.48 7.95 55.78 8.41 55.78 9.52L55.78 9.88C53.35 9.90 51.79 10.64 51.79 12.11C51.79 13.29 52.78 13.85 53.82 13.85C54.82 13.85 55.58 13.29 55.89 12.71C55.93 13.30 56.25 13.90 57.47 13.75ZM55.78 11.42C55.72 12.25 54.88 12.92 54.03 12.92C53.37 12.92 52.99 12.57 52.99 12.03C52.99 11.20 53.80 10.75 55.78 10.74ZM59.15 9.48C59.15 10.15 59.33 10.70 59.68 11.09C59.16 11.45 58.83 11.87 58.83 12.52C58.83 13.29 59.30 13.58 59.85 13.78C59.46 14.04 58.83 14.56 58.83 15.37C58.83 16.76 60.65 17.04 61.81 17.04C63.55 17.04 64.90 16.41 64.90 14.88C64.90 13.27 63.38 13.09 62.01 13.01C60.87 12.94 59.84 12.92 59.84 12.25C59.84 11.96 60.02 11.75 60.30 11.55C60.68 11.73 61.14 11.83 61.68 11.83C63.31 11.83 64.30 10.98 64.30 9.42C64.30 8.97 64.22 8.58 64.05 8.25C64.69 7.94 65.00 7.43 65.00 6.80C65.00 6.66 64.99 6.51 64.95 6.34L63.98 6.20L63.98 6.69C63.98 7.04 63.88 7.39 63.62 7.67C63.17 7.25 62.54 7.03 61.74 7.03C60.05 7.03 59.15 8.01 59.15 9.48ZM61.70 10.98C60.73 10.98 60.35 10.42 60.35 9.45C60.35 8.46 60.76 7.88 61.73 7.88C62.68 7.88 63.10 8.44 63.10 9.42C63.10 10.42 62.68 10.98 61.70 10.98ZM61.85 14.06C62.94 14.13 63.85 14.28 63.85 15.05C63.85 15.85 62.92 16.14 61.80 16.14C60.96 16.14 59.84 15.97 59.84 15.16C59.84 14.60 60.34 14.24 60.79 13.99C61.19 14.03 61.39 14.03 61.85 14.06ZM71.51 10.61L71.51 9.91C71.51 7.95 70.60 7.03 68.91 7.03C66.67 7.03 65.94 8.75 65.94 10.47C65.94 12.78 67.03 13.85 68.94 13.85C70.35 13.85 71.19 13.16 71.51 12.01L70.53 11.82C70.35 12.40 69.80 12.92 68.96 12.92C67.49 12.92 67.16 11.80 67.14 10.61ZM68.88 7.95C69.89 7.95 70.35 8.61 70.35 9.46L70.35 9.72L67.19 9.72C67.35 8.50 67.98 7.95 68.88 7.95Z"></path></g><!----><!----><g data-v-423bf9ae="" id="c6d4346a-4cde-426b-af30-8df8fe57e79e" fill="#1F1E1A" transform="matrix(4.683840247285267,0,0,4.683840247285267,-9.227164486490096,110.84544173988658)"><path d="M9.17 10.72L9.17 10.72L9.17 10.72Q9.53 10.72 9.74 10.98L9.74 10.98L9.74 10.98Q9.95 11.23 9.95 11.68L9.95 11.68L9.95 11.68Q9.95 11.79 9.94 11.91L9.94 11.91L9.94 11.91Q9.93 12.03 9.90 12.11L9.90 12.11L9.90 12.11Q9.60 12.04 9.25 12.03L9.25 12.03L9.25 12.03Q9.17 12.64 8.81 13.32L8.81 13.32L8.81 13.32Q8.44 14 7.92 14.60L7.92 14.60L7.92 14.60Q7.41 15.19 6.79 15.64L6.79 15.64L6.79 15.64Q6.17 16.09 5.57 16.24L5.57 16.24L5.57 16.24Q3.70 16.20 2.83 15.27L2.83 15.27L2.83 15.27Q1.97 14.34 1.97 12.36L1.97 12.36L1.97 12.36Q1.97 10.92 2.51 9.57L2.51 9.57L2.51 9.57Q3.04 8.22 3.92 7.17L3.92 7.17L3.92 7.17Q4.80 6.12 5.94 5.48L5.94 5.48L5.94 5.48Q7.08 4.84 8.32 4.84L8.32 4.84L8.32 4.84Q9.28 4.84 9.82 5.25L9.82 5.25L9.82 5.25Q10.36 5.66 10.36 6.40L10.36 6.40L10.36 6.40Q10.36 6.89 10.13 7.31L10.13 7.31L10.13 7.31Q9.90 7.73 9.37 8.22L9.37 8.22L9.37 8.22Q9.04 8.12 8.81 7.88L8.81 7.88L8.81 7.88Q8.57 7.63 8.51 7.31L8.51 7.31L8.51 7.31Q8.99 6.96 9.18 6.66L9.18 6.66L9.18 6.66Q9.38 6.37 9.38 5.96L9.38 5.96L9.38 5.96Q9.38 5.32 8.61 5.32L8.61 5.32L8.61 5.32Q7.98 5.32 7.26 5.79L7.26 5.79L7.26 5.79Q6.54 6.26 5.81 7.14L5.81 7.14L5.81 7.14Q4.77 8.39 4.30 9.71L4.30 9.71L4.30 9.71Q3.82 11.03 3.82 12.68L3.82 12.68L3.82 12.68Q3.82 13.30 3.95 13.80L3.95 13.80L3.95 13.80Q4.07 14.31 4.28 14.69L4.28 14.69L4.28 14.69Q4.49 15.06 4.78 15.29L4.78 15.29L4.78 15.29Q5.07 15.51 5.40 15.54L5.40 15.54L5.40 15.54Q5.85 15.44 6.30 15.09L6.30 15.09L6.30 15.09Q6.75 14.73 7.12 14.25L7.12 14.25L7.12 14.25Q7.49 13.76 7.75 13.21L7.75 13.21L7.75 13.21Q8.01 12.66 8.06 12.15L8.06 12.15L8.06 12.15Q7.67 12.24 7.32 12.31L7.32 12.31L7.32 12.31Q6.96 12.39 6.64 12.39L6.64 12.39L6.64 12.39Q6.22 12.39 5.90 12.18L5.90 12.18L5.90 12.18Q5.59 11.97 5.47 11.61L5.47 11.61L5.47 11.61Q5.73 11.47 6.21 11.31L6.21 11.31L6.21 11.31Q6.69 11.16 7.24 11.03L7.24 11.03L7.24 11.03Q7.78 10.89 8.31 10.81L8.31 10.81L8.31 10.81Q8.83 10.72 9.17 10.72ZM23.97 4.98L23.97 4.98L23.97 4.98Q24.23 5.10 24.51 5.27L24.51 5.27L24.51 5.27Q24.79 5.45 25.03 5.63L25.03 5.63L25.03 5.63Q25.27 5.81 25.43 5.98L25.43 5.98L25.43 5.98Q25.59 6.16 25.61 6.27L25.61 6.27L25.61 6.27Q25.37 6.22 25.13 6.20L25.13 6.20L25.13 6.20Q24.89 6.17 24.70 6.17L24.70 6.17L24.70 6.17Q24.07 6.17 23.44 6.48L23.44 6.48L23.44 6.48Q22.82 6.79 22.26 7.32L22.26 7.32L22.26 7.32Q21.70 7.85 21.22 8.57L21.22 8.57L21.22 8.57Q20.75 9.28 20.41 10.09L20.41 10.09L20.41 10.09Q20.06 10.91 19.87 11.77L19.87 11.77L19.87 11.77Q19.67 12.64 19.67 13.48L19.67 13.48L19.67 13.48Q19.67 14.57 20.03 15.11L20.03 15.11L20.03 15.11Q20.40 15.64 21.10 15.64L21.10 15.64L21.10 15.64Q21.43 15.64 21.83 15.51L21.83 15.51L21.83 15.51Q22.22 15.37 22.62 15.13L22.62 15.13L22.62 15.13Q23.03 14.90 23.42 14.56L23.42 14.56L23.42 14.56Q23.81 14.22 24.15 13.82L24.15 13.82L24.15 13.82Q24.64 13.23 25.03 12.48L25.03 12.48L25.03 12.48Q25.42 11.73 25.70 10.89L25.70 10.89L25.70 10.89Q25.97 10.05 26.12 9.16L26.12 9.16L26.12 9.16Q26.26 8.27 26.26 7.42L26.26 7.42L26.26 7.42Q26.26 7.08 26.25 6.85L26.25 6.85L26.25 6.85Q26.24 6.62 26.22 6.46L26.22 6.46L26.22 6.46Q26.19 6.30 26.18 6.20L26.18 6.20L26.18 6.20Q26.17 6.10 26.15 6.03L26.15 6.03L26.15 6.03Q26.32 6.12 26.52 6.24L26.52 6.24L26.52 6.24Q26.73 6.36 26.90 6.59L26.90 6.59L26.90 6.59Q27.08 6.82 27.20 7.20L27.20 7.20L27.20 7.20Q27.31 7.57 27.31 8.18L27.31 8.18L27.31 8.18Q27.31 9.16 27.08 10.10L27.08 10.10L27.08 10.10Q26.85 11.05 26.44 11.90L26.44 11.90L26.44 11.90Q26.03 12.75 25.47 13.50L25.47 13.50L25.47 13.50Q24.91 14.24 24.26 14.80L24.26 14.80L24.26 14.80Q23.42 15.54 22.47 15.95L22.47 15.95L22.47 15.95Q21.52 16.35 20.64 16.35L20.64 16.35L20.64 16.35Q19.35 16.35 18.67 15.53L18.67 15.53L18.67 15.53Q17.99 14.71 17.99 13.12L17.99 13.12L17.99 13.12Q17.99 12.26 18.18 11.31L18.18 11.31L18.18 11.31Q18.37 10.36 18.71 9.44L18.71 9.44L18.71 9.44Q19.05 8.51 19.53 7.68L19.53 7.68L19.53 7.68Q20.01 6.85 20.57 6.21L20.57 6.21L20.57 6.21Q21.14 5.57 21.79 5.19L21.79 5.19L21.79 5.19Q22.44 4.82 23.13 4.82L23.13 4.82L23.13 4.82Q23.35 4.82 23.55 4.85L23.55 4.85L23.55 4.85Q23.74 4.89 23.97 4.98ZM41.09 4.98L41.09 4.98L41.09 4.98Q41.36 5.10 41.64 5.27L41.64 5.27L41.64 5.27Q41.92 5.45 42.15 5.63L42.15 5.63L42.15 5.63Q42.39 5.81 42.55 5.98L42.55 5.98L42.55 5.98Q42.71 6.16 42.73 6.27L42.73 6.27L42.73 6.27Q42.49 6.22 42.25 6.20L42.25 6.20L42.25 6.20Q42.01 6.17 41.82 6.17L41.82 6.17L41.82 6.17Q41.19 6.17 40.56 6.48L40.56 6.48L40.56 6.48Q39.94 6.79 39.38 7.32L39.38 7.32L39.38 7.32Q38.82 7.85 38.35 8.57L38.35 8.57L38.35 8.57Q37.87 9.28 37.53 10.09L37.53 10.09L37.53 10.09Q37.18 10.91 36.99 11.77L36.99 11.77L36.99 11.77Q36.79 12.64 36.79 13.48L36.79 13.48L36.79 13.48Q36.79 14.57 37.16 15.11L37.16 15.11L37.16 15.11Q37.52 15.64 38.22 15.64L38.22 15.64L38.22 15.64Q38.56 15.64 38.95 15.51L38.95 15.51L38.95 15.51Q39.34 15.37 39.75 15.13L39.75 15.13L39.75 15.13Q40.15 14.90 40.54 14.56L40.54 14.56L40.54 14.56Q40.94 14.22 41.27 13.82L41.27 13.82L41.27 13.82Q41.76 13.23 42.15 12.48L42.15 12.48L42.15 12.48Q42.55 11.73 42.82 10.89L42.82 10.89L42.82 10.89Q43.09 10.05 43.24 9.16L43.24 9.16L43.24 9.16Q43.39 8.27 43.39 7.42L43.39 7.42L43.39 7.42Q43.39 7.08 43.37 6.85L43.37 6.85L43.37 6.85Q43.36 6.62 43.34 6.46L43.34 6.46L43.34 6.46Q43.32 6.30 43.30 6.20L43.30 6.20L43.30 6.20Q43.29 6.10 43.27 6.03L43.27 6.03L43.27 6.03Q43.44 6.12 43.65 6.24L43.65 6.24L43.65 6.24Q43.85 6.36 44.02 6.59L44.02 6.59L44.02 6.59Q44.20 6.82 44.32 7.20L44.32 7.20L44.32 7.20Q44.44 7.57 44.44 8.18L44.44 8.18L44.44 8.18Q44.44 9.16 44.20 10.10L44.20 10.10L44.20 10.10Q43.97 11.05 43.56 11.90L43.56 11.90L43.56 11.90Q43.15 12.75 42.59 13.50L42.59 13.50L42.59 13.50Q42.03 14.24 41.38 14.80L41.38 14.80L41.38 14.80Q40.54 15.54 39.59 15.95L39.59 15.95L39.59 15.95Q38.64 16.35 37.76 16.35L37.76 16.35L37.76 16.35Q36.47 16.35 35.79 15.53L35.79 15.53L35.79 15.53Q35.11 14.71 35.11 13.12L35.11 13.12L35.11 13.12Q35.11 12.26 35.30 11.31L35.30 11.31L35.30 11.31Q35.49 10.36 35.83 9.44L35.83 9.44L35.83 9.44Q36.18 8.51 36.65 7.68L36.65 7.68L36.65 7.68Q37.13 6.85 37.70 6.21L37.70 6.21L37.70 6.21Q38.26 5.57 38.91 5.19L38.91 5.19L38.91 5.19Q39.56 4.82 40.25 4.82L40.25 4.82L40.25 4.82Q40.47 4.82 40.67 4.85L40.67 4.85L40.67 4.85Q40.87 4.89 41.09 4.98ZM52.70 14.45L52.70 14.45L52.70 14.45Q52.91 13.99 53.20 13.26L53.20 13.26L53.20 13.26Q53.49 12.53 53.82 11.68L53.82 11.68L53.82 11.68Q54.14 10.84 54.47 9.95L54.47 9.95L54.47 9.95Q54.81 9.06 55.10 8.26L55.10 8.26L55.10 8.26Q55.40 7.46 55.62 6.83L55.62 6.83L55.62 6.83Q55.83 6.20 55.93 5.87L55.93 5.87L55.93 5.87Q55.05 6.23 54.42 6.97L54.42 6.97L54.42 6.97Q53.79 7.71 53.47 8.83L53.47 8.83L53.47 8.83Q53.14 8.72 52.88 8.43L52.88 8.43L52.88 8.43Q52.61 8.15 52.53 7.71L52.53 7.71L52.53 7.71Q52.67 7.07 53.05 6.54L53.05 6.54L53.05 6.54Q53.44 6.01 54.03 5.63L54.03 5.63L54.03 5.63Q54.61 5.25 55.38 5.05L55.38 5.05L55.38 5.05Q56.15 4.84 57.04 4.84L57.04 4.84L57.04 4.84Q58.16 4.84 59.09 5.17L59.09 5.17L59.09 5.17Q60.03 5.50 60.70 6.09L60.70 6.09L60.70 6.09Q61.38 6.68 61.75 7.50L61.75 7.50L61.75 7.50Q62.13 8.33 62.13 9.34L62.13 9.34L62.13 9.34Q62.13 10.71 61.63 11.96L61.63 11.96L61.63 11.96Q61.12 13.20 60.26 14.15L60.26 14.15L60.26 14.15Q59.40 15.11 58.27 15.67L58.27 15.67L58.27 15.67Q57.13 16.24 55.89 16.24L55.89 16.24L55.89 16.24Q54.74 16.24 53.92 15.79L53.92 15.79L53.92 15.79Q53.10 15.33 52.70 14.45ZM57.64 5.54L57.64 5.54L57.64 5.54Q56.94 5.54 56.31 5.74L56.31 5.74L56.31 5.74Q56.92 5.96 57.33 6.21L57.33 6.21L57.33 6.21Q57.74 6.45 57.89 6.59L57.89 6.59L57.89 6.59Q57.78 6.75 57.56 7.14L57.56 7.14L57.56 7.14Q57.34 7.53 57.06 8.09L57.06 8.09L57.06 8.09Q56.77 8.65 56.45 9.32L56.45 9.32L56.45 9.32Q56.13 9.98 55.82 10.68L55.82 10.68L55.82 10.68Q55.02 12.46 54.66 13.48L54.66 13.48L54.66 13.48Q54.31 14.50 54.31 14.90L54.31 14.90L54.31 14.90Q54.50 14.97 54.78 14.99L54.78 14.99L54.78 14.99Q55.06 15.02 55.38 15.02L55.38 15.02L55.38 15.02Q56.52 15.02 57.53 14.50L57.53 14.50L57.53 14.50Q58.55 13.97 59.31 13.09L59.31 13.09L59.31 13.09Q60.07 12.21 60.52 11.04L60.52 11.04L60.52 11.04Q60.96 9.87 60.96 8.58L60.96 8.58L60.96 8.58Q60.96 7.14 60.06 6.34L60.06 6.34L60.06 6.34Q59.16 5.54 57.64 5.54ZM85.85 9.34L85.85 9.34L85.85 9.34Q86.30 9.34 86.55 9.59L86.55 9.59L86.55 9.59Q86.81 9.84 86.81 10.29L86.81 10.29L86.81 10.29Q86.81 10.40 86.80 10.52L86.80 10.52L86.80 10.52Q86.79 10.64 86.74 10.72L86.74 10.72L86.74 10.72Q86.56 10.70 86.34 10.68L86.34 10.68L86.34 10.68Q86.11 10.65 85.81 10.65L85.81 10.65L85.81 10.65Q85.18 10.65 84.55 10.77L84.55 10.77L84.55 10.77Q83.92 10.88 83.34 10.95L83.34 10.95L83.34 10.95Q82.71 12.43 82.31 13.73L82.31 13.73L82.31 13.73Q81.90 15.04 81.68 16.31L81.68 16.31L81.68 16.31Q81.20 16.20 80.84 15.90L80.84 15.90L80.84 15.90Q80.47 15.61 80.15 15.08L80.15 15.08L80.15 15.08Q80.25 14.85 80.39 14.54L80.39 14.54L80.39 14.54Q80.53 14.22 80.72 13.74L80.72 13.74L80.72 13.74Q80.92 13.26 81.19 12.56L81.19 12.56L81.19 12.56Q81.47 11.87 81.84 10.91L81.84 10.91L81.84 10.91Q81.26 10.71 81.07 10.22L81.07 10.22L81.07 10.22Q81.14 10.15 81.47 10.06L81.47 10.06L81.47 10.06Q81.79 9.97 82.25 9.86L82.25 9.86L82.25 9.86Q82.46 9.31 82.61 8.88L82.61 8.88L82.61 8.88Q82.77 8.46 82.89 8.07L82.89 8.07L82.89 8.07Q83.02 7.69 83.13 7.32L83.13 7.32L83.13 7.32Q83.23 6.94 83.31 6.52L83.31 6.52L83.24 6.52L83.24 6.52Q82.71 6.52 82.38 6.27L82.38 6.27L82.38 6.27Q82.05 6.02 82.05 5.61L82.05 5.61L82.05 5.61Q82.05 5.50 82.09 5.35L82.09 5.35L82.09 5.35Q82.12 5.19 82.18 5.08L82.18 5.08L82.18 5.08Q82.45 5.12 82.70 5.14L82.70 5.14L82.70 5.14Q82.96 5.15 83.38 5.15L83.38 5.15L83.38 5.15Q84.27 5.15 85.04 5.10L85.04 5.10L85.04 5.10Q85.81 5.05 86.43 5.00L86.43 5.00L86.43 5.00Q87.05 4.94 87.50 4.89L87.50 4.89L87.50 4.89Q87.95 4.84 88.19 4.84L88.19 4.84L88.19 4.84Q88.51 4.84 88.76 5.18L88.76 5.18L88.76 5.18Q89.01 5.52 89.15 6.13L89.15 6.13L89.15 6.13Q88.70 6.09 88.43 6.08L88.43 6.08L88.43 6.08Q88.16 6.06 87.95 6.06L87.95 6.06L87.95 6.06Q87.23 6.06 86.64 6.13L86.64 6.13L86.64 6.13Q86.04 6.19 85.51 6.27L85.51 6.27L85.51 6.27Q85.43 6.40 85.32 6.59L85.32 6.59L85.32 6.59Q85.22 6.79 85.05 7.15L85.05 7.15L85.05 7.15Q84.88 7.50 84.62 8.08L84.62 8.08L84.62 8.08Q84.36 8.65 83.97 9.53L83.97 9.53L83.97 9.53Q84.52 9.45 85.02 9.39L85.02 9.39L85.02 9.39Q85.51 9.34 85.85 9.34ZM101.15 4.98L101.15 4.98L101.15 4.98Q101.42 5.10 101.70 5.27L101.70 5.27L101.70 5.27Q101.98 5.45 102.21 5.63L102.21 5.63L102.21 5.63Q102.45 5.81 102.61 5.98L102.61 5.98L102.61 5.98Q102.77 6.16 102.79 6.27L102.79 6.27L102.79 6.27Q102.55 6.22 102.31 6.20L102.31 6.20L102.31 6.20Q102.07 6.17 101.88 6.17L101.88 6.17L101.88 6.17Q101.25 6.17 100.63 6.48L100.63 6.48L100.63 6.48Q100.00 6.79 99.44 7.32L99.44 7.32L99.44 7.32Q98.88 7.85 98.41 8.57L98.41 8.57L98.41 8.57Q97.93 9.28 97.59 10.09L97.59 10.09L97.59 10.09Q97.24 10.91 97.05 11.77L97.05 11.77L97.05 11.77Q96.85 12.64 96.85 13.48L96.85 13.48L96.85 13.48Q96.85 14.57 97.22 15.11L97.22 15.11L97.22 15.11Q97.58 15.64 98.28 15.64L98.28 15.64L98.28 15.64Q98.62 15.64 99.01 15.51L99.01 15.51L99.01 15.51Q99.40 15.37 99.81 15.13L99.81 15.13L99.81 15.13Q100.21 14.90 100.60 14.56L100.60 14.56L100.60 14.56Q101.00 14.22 101.33 13.82L101.33 13.82L101.33 13.82Q101.82 13.23 102.21 12.48L102.21 12.48L102.21 12.48Q102.61 11.73 102.88 10.89L102.88 10.89L102.88 10.89Q103.15 10.05 103.30 9.16L103.30 9.16L103.30 9.16Q103.45 8.27 103.45 7.42L103.45 7.42L103.45 7.42Q103.45 7.08 103.43 6.85L103.43 6.85L103.43 6.85Q103.42 6.62 103.40 6.46L103.40 6.46L103.40 6.46Q103.38 6.30 103.36 6.20L103.36 6.20L103.36 6.20Q103.35 6.10 103.33 6.03L103.33 6.03L103.33 6.03Q103.50 6.12 103.70 6.24L103.70 6.24L103.70 6.24Q103.91 6.36 104.08 6.59L104.08 6.59L104.08 6.59Q104.26 6.82 104.38 7.20L104.38 7.20L104.38 7.20Q104.50 7.57 104.50 8.18L104.50 8.18L104.50 8.18Q104.50 9.16 104.27 10.10L104.27 10.10L104.27 10.10Q104.03 11.05 103.62 11.90L103.62 11.90L103.62 11.90Q103.21 12.75 102.65 13.50L102.65 13.50L102.65 13.50Q102.09 14.24 101.44 14.80L101.44 14.80L101.44 14.80Q100.60 15.54 99.65 15.95L99.65 15.95L99.65 15.95Q98.70 16.35 97.82 16.35L97.82 16.35L97.82 16.35Q96.53 16.35 95.85 15.53L95.85 15.53L95.85 15.53Q95.17 14.71 95.17 13.12L95.17 13.12L95.17 13.12Q95.17 12.26 95.36 11.31L95.36 11.31L95.36 11.31Q95.55 10.36 95.89 9.44L95.89 9.44L95.89 9.44Q96.24 8.51 96.71 7.68L96.71 7.68L96.71 7.68Q97.19 6.85 97.75 6.21L97.75 6.21L97.75 6.21Q98.32 5.57 98.97 5.19L98.97 5.19L98.97 5.19Q99.62 4.82 100.31 4.82L100.31 4.82L100.31 4.82Q100.53 4.82 100.73 4.85L100.73 4.85L100.73 4.85Q100.93 4.89 101.15 4.98ZM118.27 4.98L118.27 4.98L118.27 4.98Q118.54 5.10 118.82 5.27L118.82 5.27L118.82 5.27Q119.10 5.45 119.34 5.63L119.34 5.63L119.34 5.63Q119.57 5.81 119.73 5.98L119.73 5.98L119.73 5.98Q119.90 6.16 119.91 6.27L119.91 6.27L119.91 6.27Q119.67 6.22 119.43 6.20L119.43 6.20L119.43 6.20Q119.20 6.17 119 6.17L119 6.17L119 6.17Q118.37 6.17 117.75 6.48L117.75 6.48L117.75 6.48Q117.12 6.79 116.56 7.32L116.56 7.32L116.56 7.32Q116.00 7.85 115.53 8.57L115.53 8.57L115.53 8.57Q115.05 9.28 114.71 10.09L114.71 10.09L114.71 10.09Q114.37 10.91 114.17 11.77L114.17 11.77L114.17 11.77Q113.97 12.64 113.97 13.48L113.97 13.48L113.97 13.48Q113.97 14.57 114.34 15.11L114.34 15.11L114.34 15.11Q114.70 15.64 115.40 15.64L115.40 15.64L115.40 15.64Q115.74 15.64 116.13 15.51L116.13 15.51L116.13 15.51Q116.52 15.37 116.93 15.13L116.93 15.13L116.93 15.13Q117.33 14.90 117.73 14.56L117.73 14.56L117.73 14.56Q118.12 14.22 118.45 13.82L118.45 13.82L118.45 13.82Q118.94 13.23 119.34 12.48L119.34 12.48L119.34 12.48Q119.73 11.73 120.00 10.89L120.00 10.89L120.00 10.89Q120.27 10.05 120.42 9.16L120.42 9.16L120.42 9.16Q120.57 8.27 120.57 7.42L120.57 7.42L120.57 7.42Q120.57 7.08 120.55 6.85L120.55 6.85L120.55 6.85Q120.54 6.62 120.52 6.46L120.52 6.46L120.52 6.46Q120.50 6.30 120.48 6.20L120.48 6.20L120.48 6.20Q120.47 6.10 120.46 6.03L120.46 6.03L120.46 6.03Q120.62 6.12 120.83 6.24L120.83 6.24L120.83 6.24Q121.03 6.36 121.20 6.59L121.20 6.59L121.20 6.59Q121.38 6.82 121.50 7.20L121.50 7.20L121.50 7.20Q121.62 7.57 121.62 8.18L121.62 8.18L121.62 8.18Q121.62 9.16 121.39 10.10L121.39 10.10L121.39 10.10Q121.16 11.05 120.74 11.90L120.74 11.90L120.74 11.90Q120.33 12.75 119.77 13.50L119.77 13.50L119.77 13.50Q119.21 14.24 118.57 14.80L118.57 14.80L118.57 14.80Q117.73 15.54 116.77 15.95L116.77 15.95L116.77 15.95Q115.82 16.35 114.94 16.35L114.94 16.35L114.94 16.35Q113.65 16.35 112.97 15.53L112.97 15.53L112.97 15.53Q112.29 14.71 112.29 13.12L112.29 13.12L112.29 13.12Q112.29 12.26 112.48 11.31L112.48 11.31L112.48 11.31Q112.67 10.36 113.02 9.44L113.02 9.44L113.02 9.44Q113.36 8.51 113.83 7.68L113.83 7.68L113.83 7.68Q114.31 6.85 114.88 6.21L114.88 6.21L114.88 6.21Q115.44 5.57 116.09 5.19L116.09 5.19L116.09 5.19Q116.75 4.82 117.43 4.82L117.43 4.82L117.43 4.82Q117.66 4.82 117.85 4.85L117.85 4.85L117.85 4.85Q118.05 4.89 118.27 4.98ZM129.88 14.45L129.88 14.45L129.88 14.45Q130.09 13.99 130.38 13.26L130.38 13.26L130.38 13.26Q130.68 12.53 131.00 11.68L131.00 11.68L131.00 11.68Q131.32 10.84 131.66 9.95L131.66 9.95L131.66 9.95Q131.99 9.06 132.29 8.26L132.29 8.26L132.29 8.26Q132.58 7.46 132.80 6.83L132.80 6.83L132.80 6.83Q133.01 6.20 133.11 5.87L133.11 5.87L133.11 5.87Q132.23 6.23 131.60 6.97L131.60 6.97L131.60 6.97Q130.97 7.71 130.65 8.83L130.65 8.83L130.65 8.83Q130.33 8.72 130.06 8.43L130.06 8.43L130.06 8.43Q129.79 8.15 129.71 7.71L129.71 7.71L129.71 7.71Q129.85 7.07 130.23 6.54L130.23 6.54L130.23 6.54Q130.62 6.01 131.21 5.63L131.21 5.63L131.21 5.63Q131.80 5.25 132.57 5.05L132.57 5.05L132.57 5.05Q133.34 4.84 134.22 4.84L134.22 4.84L134.22 4.84Q135.34 4.84 136.28 5.17L136.28 5.17L136.28 5.17Q137.21 5.50 137.89 6.09L137.89 6.09L137.89 6.09Q138.56 6.68 138.94 7.50L138.94 7.50L138.94 7.50Q139.31 8.33 139.31 9.34L139.31 9.34L139.31 9.34Q139.31 10.71 138.81 11.96L138.81 11.96L138.81 11.96Q138.31 13.20 137.44 14.15L137.44 14.15L137.44 14.15Q136.58 15.11 135.45 15.67L135.45 15.67L135.45 15.67Q134.32 16.24 133.07 16.24L133.07 16.24L133.07 16.24Q131.92 16.24 131.10 15.79L131.10 15.79L131.10 15.79Q130.28 15.33 129.88 14.45ZM134.82 5.54L134.82 5.54L134.82 5.54Q134.12 5.54 133.49 5.74L133.49 5.74L133.49 5.74Q134.11 5.96 134.51 6.21L134.51 6.21L134.51 6.21Q134.92 6.45 135.07 6.59L135.07 6.59L135.07 6.59Q134.96 6.75 134.74 7.14L134.74 7.14L134.74 7.14Q134.53 7.53 134.24 8.09L134.24 8.09L134.24 8.09Q133.95 8.65 133.63 9.32L133.63 9.32L133.63 9.32Q133.31 9.98 133 10.68L133 10.68L133 10.68Q132.20 12.46 131.84 13.48L131.84 13.48L131.84 13.48Q131.49 14.50 131.49 14.90L131.49 14.90L131.49 14.90Q131.68 14.97 131.96 14.99L131.96 14.99L131.96 14.99Q132.24 15.02 132.57 15.02L132.57 15.02L132.57 15.02Q133.70 15.02 134.72 14.50L134.72 14.50L134.72 14.50Q135.73 13.97 136.49 13.09L136.49 13.09L136.49 13.09Q137.26 12.21 137.70 11.04L137.70 11.04L137.70 11.04Q138.14 9.87 138.14 8.58L138.14 8.58L138.14 8.58Q138.14 7.14 137.24 6.34L137.24 6.34L137.24 6.34Q136.35 5.54 134.82 5.54ZM145.66 17.54L145.66 17.54L145.66 17.54Q145.57 17.47 145.50 17.31L145.50 17.31L145.50 17.31Q145.43 17.15 145.43 17.01L145.43 17.01L145.43 17.01Q146.13 16.41 146.43 15.86L146.43 15.86L146.43 15.86Q146.73 15.32 146.73 14.67L146.73 14.67L146.73 14.67Q146.73 14.25 146.70 13.95L146.70 13.95L146.70 13.95Q146.66 13.65 146.57 13.26L146.57 13.26L146.57 13.26Q146.92 13.29 147.26 13.38L147.26 13.38L147.26 13.38Q147.60 13.47 147.88 13.60L147.88 13.60L147.88 13.60Q148.15 13.73 148.33 13.91L148.33 13.91L148.33 13.91Q148.51 14.08 148.55 14.25L148.55 14.25L148.55 14.25Q147.90 16.58 145.66 17.54ZM175.28 10.72L175.28 10.72L175.28 10.72Q175.64 10.72 175.85 10.98L175.85 10.98L175.85 10.98Q176.06 11.23 176.06 11.68L176.06 11.68L176.06 11.68Q176.06 11.79 176.05 11.91L176.05 11.91L176.05 11.91Q176.04 12.03 176.01 12.11L176.01 12.11L176.01 12.11Q175.71 12.04 175.36 12.03L175.36 12.03L175.36 12.03Q175.28 12.64 174.92 13.32L174.92 13.32L174.92 13.32Q174.55 14 174.03 14.60L174.03 14.60L174.03 14.60Q173.52 15.19 172.90 15.64L172.90 15.64L172.90 15.64Q172.28 16.09 171.68 16.24L171.68 16.24L171.68 16.24Q169.81 16.20 168.95 15.27L168.95 15.27L168.95 15.27Q168.08 14.34 168.08 12.36L168.08 12.36L168.08 12.36Q168.08 10.92 168.62 9.57L168.62 9.57L168.62 9.57Q169.15 8.22 170.03 7.17L170.03 7.17L170.03 7.17Q170.91 6.12 172.05 5.48L172.05 5.48L172.05 5.48Q173.19 4.84 174.43 4.84L174.43 4.84L174.43 4.84Q175.39 4.84 175.93 5.25L175.93 5.25L175.93 5.25Q176.47 5.66 176.47 6.40L176.47 6.40L176.47 6.40Q176.47 6.89 176.24 7.31L176.24 7.31L176.24 7.31Q176.01 7.73 175.48 8.22L175.48 8.22L175.48 8.22Q175.15 8.12 174.92 7.88L174.92 7.88L174.92 7.88Q174.68 7.63 174.62 7.31L174.62 7.31L174.62 7.31Q175.10 6.96 175.29 6.66L175.29 6.66L175.29 6.66Q175.49 6.37 175.49 5.96L175.49 5.96L175.49 5.96Q175.49 5.32 174.72 5.32L174.72 5.32L174.72 5.32Q174.09 5.32 173.37 5.79L173.37 5.79L173.37 5.79Q172.65 6.26 171.92 7.14L171.92 7.14L171.92 7.14Q170.88 8.39 170.41 9.71L170.41 9.71L170.41 9.71Q169.93 11.03 169.93 12.68L169.93 12.68L169.93 12.68Q169.93 13.30 170.06 13.80L170.06 13.80L170.06 13.80Q170.18 14.31 170.39 14.69L170.39 14.69L170.39 14.69Q170.60 15.06 170.89 15.29L170.89 15.29L170.89 15.29Q171.18 15.51 171.51 15.54L171.51 15.54L171.51 15.54Q171.96 15.44 172.41 15.09L172.41 15.09L172.41 15.09Q172.86 14.73 173.23 14.25L173.23 14.25L173.23 14.25Q173.60 13.76 173.86 13.21L173.86 13.21L173.86 13.21Q174.12 12.66 174.17 12.15L174.17 12.15L174.17 12.15Q173.78 12.24 173.43 12.31L173.43 12.31L173.43 12.31Q173.07 12.39 172.75 12.39L172.75 12.39L172.75 12.39Q172.33 12.39 172.01 12.18L172.01 12.18L172.01 12.18Q171.70 11.97 171.58 11.61L171.58 11.61L171.58 11.61Q171.84 11.47 172.32 11.31L172.32 11.31L172.32 11.31Q172.80 11.16 173.35 11.03L173.35 11.03L173.35 11.03Q173.89 10.89 174.42 10.81L174.42 10.81L174.42 10.81Q174.94 10.72 175.28 10.72ZM190.08 4.98L190.08 4.98L190.08 4.98Q190.34 5.10 190.62 5.27L190.62 5.27L190.62 5.27Q190.90 5.45 191.14 5.63L191.14 5.63L191.14 5.63Q191.38 5.81 191.54 5.98L191.54 5.98L191.54 5.98Q191.70 6.16 191.72 6.27L191.72 6.27L191.72 6.27Q191.48 6.22 191.24 6.20L191.24 6.20L191.24 6.20Q191.00 6.17 190.81 6.17L190.81 6.17L190.81 6.17Q190.18 6.17 189.55 6.48L189.55 6.48L189.55 6.48Q188.93 6.79 188.37 7.32L188.37 7.32L188.37 7.32Q187.81 7.85 187.33 8.57L187.33 8.57L187.33 8.57Q186.86 9.28 186.52 10.09L186.52 10.09L186.52 10.09Q186.17 10.91 185.98 11.77L185.98 11.77L185.98 11.77Q185.78 12.64 185.78 13.48L185.78 13.48L185.78 13.48Q185.78 14.57 186.14 15.11L186.14 15.11L186.14 15.11Q186.51 15.64 187.21 15.64L187.21 15.64L187.21 15.64Q187.54 15.64 187.94 15.51L187.94 15.51L187.94 15.51Q188.33 15.37 188.73 15.13L188.73 15.13L188.73 15.13Q189.14 14.90 189.53 14.56L189.53 14.56L189.53 14.56Q189.92 14.22 190.26 13.82L190.26 13.82L190.26 13.82Q190.75 13.23 191.14 12.48L191.14 12.48L191.14 12.48Q191.53 11.73 191.81 10.89L191.81 10.89L191.81 10.89Q192.08 10.05 192.23 9.16L192.23 9.16L192.23 9.16Q192.37 8.27 192.37 7.42L192.37 7.42L192.37 7.42Q192.37 7.08 192.36 6.85L192.36 6.85L192.36 6.85Q192.35 6.62 192.33 6.46L192.33 6.46L192.33 6.46Q192.30 6.30 192.29 6.20L192.29 6.20L192.29 6.20Q192.28 6.10 192.26 6.03L192.26 6.03L192.26 6.03Q192.43 6.12 192.63 6.24L192.63 6.24L192.63 6.24Q192.84 6.36 193.01 6.59L193.01 6.59L193.01 6.59Q193.19 6.82 193.31 7.20L193.31 7.20L193.31 7.20Q193.42 7.57 193.42 8.18L193.42 8.18L193.42 8.18Q193.42 9.16 193.19 10.10L193.19 10.10L193.19 10.10Q192.96 11.05 192.55 11.90L192.55 11.90L192.55 11.90Q192.14 12.75 191.58 13.50L191.58 13.50L191.58 13.50Q191.02 14.24 190.37 14.80L190.37 14.80L190.37 14.80Q189.53 15.54 188.58 15.95L188.58 15.95L188.58 15.95Q187.63 16.35 186.75 16.35L186.75 16.35L186.75 16.35Q185.46 16.35 184.78 15.53L184.78 15.53L184.78 15.53Q184.10 14.71 184.10 13.12L184.10 13.12L184.10 13.12Q184.10 12.26 184.29 11.31L184.29 11.31L184.29 11.31Q184.48 10.36 184.82 9.44L184.82 9.44L184.82 9.44Q185.16 8.51 185.64 7.68L185.64 7.68L185.64 7.68Q186.12 6.85 186.68 6.21L186.68 6.21L186.68 6.21Q187.25 5.57 187.90 5.19L187.90 5.19L187.90 5.19Q188.55 4.82 189.24 4.82L189.24 4.82L189.24 4.82Q189.46 4.82 189.66 4.85L189.66 4.85L189.66 4.85Q189.85 4.89 190.08 4.98ZM207.20 4.98L207.20 4.98L207.20 4.98Q207.47 5.10 207.75 5.27L207.75 5.27L207.75 5.27Q208.03 5.45 208.26 5.63L208.26 5.63L208.26 5.63Q208.50 5.81 208.66 5.98L208.66 5.98L208.66 5.98Q208.82 6.16 208.84 6.27L208.84 6.27L208.84 6.27Q208.60 6.22 208.36 6.20L208.36 6.20L208.36 6.20Q208.12 6.17 207.93 6.17L207.93 6.17L207.93 6.17Q207.30 6.17 206.67 6.48L206.67 6.48L206.67 6.48Q206.05 6.79 205.49 7.32L205.49 7.32L205.49 7.32Q204.93 7.85 204.46 8.57L204.46 8.57L204.46 8.57Q203.98 9.28 203.64 10.09L203.64 10.09L203.64 10.09Q203.29 10.91 203.10 11.77L203.10 11.77L203.10 11.77Q202.90 12.64 202.90 13.48L202.90 13.48L202.90 13.48Q202.90 14.57 203.27 15.11L203.27 15.11L203.27 15.11Q203.63 15.64 204.33 15.64L204.33 15.64L204.33 15.64Q204.67 15.64 205.06 15.51L205.06 15.51L205.06 15.51Q205.45 15.37 205.86 15.13L205.86 15.13L205.86 15.13Q206.26 14.90 206.65 14.56L206.65 14.56L206.65 14.56Q207.05 14.22 207.38 13.82L207.38 13.82L207.38 13.82Q207.87 13.23 208.26 12.48L208.26 12.48L208.26 12.48Q208.66 11.73 208.93 10.89L208.93 10.89L208.93 10.89Q209.20 10.05 209.35 9.16L209.35 9.16L209.35 9.16Q209.50 8.27 209.50 7.42L209.50 7.42L209.50 7.42Q209.50 7.08 209.48 6.85L209.48 6.85L209.48 6.85Q209.47 6.62 209.45 6.46L209.45 6.46L209.45 6.46Q209.43 6.30 209.41 6.20L209.41 6.20L209.41 6.20Q209.40 6.10 209.38 6.03L209.38 6.03L209.38 6.03Q209.55 6.12 209.75 6.24L209.75 6.24L209.75 6.24Q209.96 6.36 210.13 6.59L210.13 6.59L210.13 6.59Q210.31 6.82 210.43 7.20L210.43 7.20L210.43 7.20Q210.55 7.57 210.55 8.18L210.55 8.18L210.55 8.18Q210.55 9.16 210.31 10.10L210.31 10.10L210.31 10.10Q210.08 11.05 209.67 11.90L209.67 11.90L209.67 11.90Q209.26 12.75 208.70 13.50L208.70 13.50L208.70 13.50Q208.14 14.24 207.49 14.80L207.49 14.80L207.49 14.80Q206.65 15.54 205.70 15.95L205.70 15.95L205.70 15.95Q204.75 16.35 203.87 16.35L203.87 16.35L203.87 16.35Q202.58 16.35 201.90 15.53L201.90 15.53L201.90 15.53Q201.22 14.71 201.22 13.12L201.22 13.12L201.22 13.12Q201.22 12.26 201.41 11.31L201.41 11.31L201.41 11.31Q201.60 10.36 201.94 9.44L201.94 9.44L201.94 9.44Q202.29 8.51 202.76 7.68L202.76 7.68L202.76 7.68Q203.24 6.85 203.81 6.21L203.81 6.21L203.81 6.21Q204.37 5.57 205.02 5.19L205.02 5.19L205.02 5.19Q205.67 4.82 206.36 4.82L206.36 4.82L206.36 4.82Q206.58 4.82 206.78 4.85L206.78 4.85L206.78 4.85Q206.98 4.89 207.20 4.98ZM218.81 14.45L218.81 14.45L218.81 14.45Q219.02 13.99 219.31 13.26L219.31 13.26L219.31 13.26Q219.60 12.53 219.93 11.68L219.93 11.68L219.93 11.68Q220.25 10.84 220.58 9.95L220.58 9.95L220.58 9.95Q220.92 9.06 221.21 8.26L221.21 8.26L221.21 8.26Q221.51 7.46 221.72 6.83L221.72 6.83L221.72 6.83Q221.94 6.20 222.04 5.87L222.04 5.87L222.04 5.87Q221.16 6.23 220.53 6.97L220.53 6.97L220.53 6.97Q219.90 7.71 219.58 8.83L219.58 8.83L219.58 8.83Q219.25 8.72 218.99 8.43L218.99 8.43L218.99 8.43Q218.72 8.15 218.64 7.71L218.64 7.71L218.64 7.71Q218.78 7.07 219.16 6.54L219.16 6.54L219.16 6.54Q219.55 6.01 220.14 5.63L220.14 5.63L220.14 5.63Q220.72 5.25 221.49 5.05L221.49 5.05L221.49 5.05Q222.26 4.84 223.15 4.84L223.15 4.84L223.15 4.84Q224.27 4.84 225.20 5.17L225.20 5.17L225.20 5.17Q226.14 5.50 226.81 6.09L226.81 6.09L226.81 6.09Q227.49 6.68 227.86 7.50L227.86 7.50L227.86 7.50Q228.24 8.33 228.24 9.34L228.24 9.34L228.24 9.34Q228.24 10.71 227.74 11.96L227.74 11.96L227.74 11.96Q227.23 13.20 226.37 14.15L226.37 14.15L226.37 14.15Q225.51 15.11 224.38 15.67L224.38 15.67L224.38 15.67Q223.24 16.24 222.00 16.24L222.00 16.24L222.00 16.24Q220.85 16.24 220.03 15.79L220.03 15.79L220.03 15.79Q219.21 15.33 218.81 14.45ZM223.75 5.54L223.75 5.54L223.75 5.54Q223.05 5.54 222.42 5.74L222.42 5.74L222.42 5.74Q223.03 5.96 223.44 6.21L223.44 6.21L223.44 6.21Q223.85 6.45 224 6.59L224 6.59L224 6.59Q223.89 6.75 223.67 7.14L223.67 7.14L223.67 7.14Q223.45 7.53 223.17 8.09L223.17 8.09L223.17 8.09Q222.88 8.65 222.56 9.32L222.56 9.32L222.56 9.32Q222.24 9.98 221.93 10.68L221.93 10.68L221.93 10.68Q221.13 12.46 220.77 13.48L220.77 13.48L220.77 13.48Q220.42 14.50 220.42 14.90L220.42 14.90L220.42 14.90Q220.61 14.97 220.89 14.99L220.89 14.99L220.89 14.99Q221.17 15.02 221.49 15.02L221.49 15.02L221.49 15.02Q222.63 15.02 223.64 14.50L223.64 14.50L223.64 14.50Q224.66 13.97 225.42 13.09L225.42 13.09L225.42 13.09Q226.18 12.21 226.63 11.04L226.63 11.04L226.63 11.04Q227.07 9.87 227.07 8.58L227.07 8.58L227.07 8.58Q227.07 7.14 226.17 6.34L226.17 6.34L226.17 6.34Q225.27 5.54 223.75 5.54ZM251.30 14.38L251.30 14.38L251.30 14.38Q251.65 14.98 251.65 15.54L251.65 15.54L251.65 15.54Q251.65 15.67 251.63 15.77L251.63 15.77L251.63 15.77Q251.61 15.88 251.58 15.99L251.58 15.99L251.58 15.99Q251.34 15.96 251.08 15.95L251.08 15.95L251.08 15.95Q250.82 15.93 250.54 15.93L250.54 15.93L250.54 15.93Q250.21 15.93 249.87 15.95L249.87 15.95L249.87 15.95Q249.52 15.97 249.10 16.02L249.10 16.02L249.10 16.02Q248.68 16.06 248.16 16.13L248.16 16.13L248.16 16.13Q247.65 16.20 246.96 16.31L246.96 16.31L246.96 16.31Q246.64 16.20 246.32 15.87L246.32 15.87L246.32 15.87Q245.99 15.54 245.71 15.08L245.71 15.08L245.71 15.08Q245.85 14.77 246.06 14.31L246.06 14.31L246.06 14.31Q246.27 13.86 246.55 13.21L246.55 13.21L246.55 13.21Q246.83 12.56 247.18 11.68L247.18 11.68L247.18 11.68Q247.52 10.81 247.91 9.66L247.91 9.66L247.91 9.66Q248.16 8.90 248.35 8.33L248.35 8.33L248.35 8.33Q248.53 7.76 248.68 7.22L248.68 7.22L248.68 7.22Q248.82 6.68 248.96 6.09L248.96 6.09L248.96 6.09Q249.10 5.50 249.27 4.73L249.27 4.73L249.27 4.73Q249.83 4.84 250.24 5.14L250.24 5.14L250.24 5.14Q250.66 5.45 251.03 6.01L251.03 6.01L251.03 6.01Q250.92 6.19 250.74 6.59L250.74 6.59L250.74 6.59Q250.56 7 250.31 7.58L250.31 7.58L250.31 7.58Q250.07 8.16 249.77 8.90L249.77 8.90L249.77 8.90Q249.48 9.63 249.16 10.47L249.16 10.47L249.16 10.47Q248.85 11.30 248.56 12.03L248.56 12.03L248.56 12.03Q248.26 12.75 248.03 13.34L248.03 13.34L248.03 13.34Q247.80 13.93 247.66 14.35L247.66 14.35L247.66 14.35Q247.52 14.77 247.52 14.98L247.52 14.98L247.52 14.98Q247.74 14.97 247.93 14.95L247.93 14.95L247.93 14.95Q248.11 14.94 248.30 14.90L248.30 14.90L248.30 14.90Q248.50 14.87 248.73 14.82L248.73 14.82L248.73 14.82Q248.96 14.77 249.28 14.69L249.28 14.69L249.28 14.69Q249.56 14.62 249.80 14.57L249.80 14.57L249.80 14.57Q250.04 14.52 250.27 14.48L250.27 14.48L250.27 14.48Q250.50 14.45 250.75 14.43L250.75 14.43L250.75 14.43Q250.99 14.41 251.30 14.38ZM260.26 14.38L260.26 14.38L260.26 14.38Q260.26 13.87 260.42 13.07L260.42 13.07L260.42 13.07Q260.58 12.26 260.84 11.33L260.84 11.33L260.84 11.33Q261.10 10.40 261.44 9.43L261.44 9.43L261.44 9.43Q261.77 8.46 262.12 7.60L262.12 7.60L262.12 7.60Q262.47 6.75 262.81 6.10L262.81 6.10L262.81 6.10Q263.14 5.46 263.41 5.18L263.41 5.18L263.41 5.18Q263.55 5.19 263.78 5.29L263.78 5.29L263.78 5.29Q264.01 5.38 264.25 5.50L264.25 5.50L264.25 5.50Q264.49 5.63 264.68 5.78L264.68 5.78L264.68 5.78Q264.88 5.92 264.94 6.05L264.94 6.05L264.94 6.05Q264.53 6.41 264.13 7.15L264.13 7.15L264.13 7.15Q263.73 7.88 263.36 8.82L263.36 8.82L263.36 8.82Q262.99 9.76 262.67 10.80L262.67 10.80L262.67 10.80Q262.35 11.84 262.11 12.82L262.11 12.82L262.11 12.82Q261.87 13.80 261.74 14.64L261.74 14.64L261.74 14.64Q261.60 15.48 261.60 16.00L261.60 16.00L261.60 16.00Q261.60 16.24 261.65 16.30L261.65 16.30L261.65 16.30Q261.34 16.28 261.20 16.19L261.20 16.19L261.20 16.19Q261.06 16.10 260.98 16.00L260.98 16.00L260.98 16.00Q260.90 15.89 260.84 15.79L260.84 15.79L260.84 15.79Q260.78 15.68 260.65 15.62L260.65 15.62L260.65 15.62Q260.55 15.58 260.48 15.43L260.48 15.43L260.48 15.43Q260.41 15.27 260.37 15.09L260.37 15.09L260.37 15.09Q260.32 14.90 260.29 14.70L260.29 14.70L260.29 14.70Q260.26 14.50 260.26 14.38ZM277.12 9.34L277.12 9.34L277.12 9.34Q277.56 9.34 277.82 9.59L277.82 9.59L277.82 9.59Q278.08 9.84 278.08 10.29L278.08 10.29L278.08 10.29Q278.08 10.40 278.07 10.52L278.07 10.52L278.07 10.52Q278.05 10.64 278.01 10.72L278.01 10.72L278.01 10.72Q277.83 10.70 277.61 10.68L277.61 10.68L277.61 10.68Q277.38 10.65 277.07 10.65L277.07 10.65L277.07 10.65Q276.44 10.65 275.81 10.77L275.81 10.77L275.81 10.77Q275.18 10.88 274.61 10.95L274.61 10.95L274.61 10.95Q273.98 12.43 273.57 13.73L273.57 13.73L273.57 13.73Q273.17 15.04 272.94 16.31L272.94 16.31L272.94 16.31Q272.47 16.20 272.10 15.90L272.10 15.90L272.10 15.90Q271.74 15.61 271.42 15.08L271.42 15.08L271.42 15.08Q271.52 14.85 271.66 14.54L271.66 14.54L271.66 14.54Q271.80 14.22 271.99 13.74L271.99 13.74L271.99 13.74Q272.19 13.26 272.46 12.56L272.46 12.56L272.46 12.56Q272.73 11.87 273.11 10.91L273.11 10.91L273.11 10.91Q272.52 10.71 272.34 10.22L272.34 10.22L272.34 10.22Q272.41 10.15 272.73 10.06L272.73 10.06L272.73 10.06Q273.06 9.97 273.52 9.86L273.52 9.86L273.52 9.86Q273.73 9.31 273.88 8.88L273.88 8.88L273.88 8.88Q274.04 8.46 274.16 8.07L274.16 8.07L274.16 8.07Q274.29 7.69 274.39 7.32L274.39 7.32L274.39 7.32Q274.50 6.94 274.58 6.52L274.58 6.52L274.51 6.52L274.51 6.52Q273.98 6.52 273.65 6.27L273.65 6.27L273.65 6.27Q273.32 6.02 273.32 5.61L273.32 5.61L273.32 5.61Q273.32 5.50 273.36 5.35L273.36 5.35L273.36 5.35Q273.39 5.19 273.45 5.08L273.45 5.08L273.45 5.08Q273.71 5.12 273.97 5.14L273.97 5.14L273.97 5.14Q274.23 5.15 274.65 5.15L274.65 5.15L274.65 5.15Q275.53 5.15 276.30 5.10L276.30 5.10L276.30 5.10Q277.07 5.05 277.70 5.00L277.70 5.00L277.70 5.00Q278.32 4.94 278.77 4.89L278.77 4.89L278.77 4.89Q279.22 4.84 279.45 4.84L279.45 4.84L279.45 4.84Q279.78 4.84 280.03 5.18L280.03 5.18L280.03 5.18Q280.28 5.52 280.42 6.13L280.42 6.13L280.42 6.13Q279.97 6.09 279.70 6.08L279.70 6.08L279.70 6.08Q279.43 6.06 279.22 6.06L279.22 6.06L279.22 6.06Q278.50 6.06 277.91 6.13L277.91 6.13L277.91 6.13Q277.31 6.19 276.78 6.27L276.78 6.27L276.78 6.27Q276.70 6.40 276.59 6.59L276.59 6.59L276.59 6.59Q276.49 6.79 276.32 7.15L276.32 7.15L276.32 7.15Q276.15 7.50 275.89 8.08L275.89 8.08L275.89 8.08Q275.63 8.65 275.24 9.53L275.24 9.53L275.24 9.53Q275.79 9.45 276.28 9.39L276.28 9.39L276.28 9.39Q276.78 9.34 277.12 9.34ZM291.75 9.21L291.75 9.21L291.75 9.21Q292.21 9.21 292.47 9.46L292.47 9.46L292.47 9.46Q292.73 9.72 292.73 10.16L292.73 10.16L292.73 10.16Q292.73 10.28 292.70 10.39L292.70 10.39L292.70 10.39Q292.68 10.51 292.66 10.60L292.66 10.60L292.66 10.60Q292.47 10.57 292.25 10.55L292.25 10.55L292.25 10.55Q292.03 10.53 291.72 10.53L291.72 10.53L291.72 10.53Q291.12 10.53 290.50 10.63L290.50 10.63L290.50 10.63Q289.88 10.74 289.32 10.81L289.32 10.81L289.32 10.81Q289.00 11.55 288.74 12.24L288.74 12.24L288.74 12.24Q288.47 12.94 288.28 13.51L288.28 13.51L288.28 13.51Q288.09 14.08 287.99 14.50L287.99 14.50L287.99 14.50Q287.88 14.92 287.87 15.13L287.87 15.13L287.87 15.13Q289.00 14.90 290.16 14.73L290.16 14.73L290.16 14.73Q291.31 14.56 292.59 14.48L292.59 14.48L292.59 14.48Q292.74 14.71 292.85 14.99L292.85 14.99L292.85 14.99Q292.95 15.27 292.95 15.60L292.95 15.60L292.95 15.60Q292.95 15.68 292.95 15.78L292.95 15.78L292.95 15.78Q292.95 15.88 292.92 15.97L292.92 15.97L292.92 15.97Q292.53 15.96 292.10 15.95L292.10 15.95L292.10 15.95Q291.66 15.95 290.96 15.95L290.96 15.95L290.96 15.95Q290.50 15.95 290.09 15.97L290.09 15.97L290.09 15.97Q289.67 15.99 289.25 16.03L289.25 16.03L289.25 16.03Q288.83 16.07 288.37 16.14L288.37 16.14L288.37 16.14Q287.90 16.21 287.31 16.31L287.31 16.31L287.31 16.31Q286.66 16.06 286.06 15.08L286.06 15.08L286.06 15.08Q286.30 14.57 286.73 13.54L286.73 13.54L286.73 13.54Q287.15 12.52 287.81 10.79L287.81 10.79L287.81 10.79Q287.18 10.60 286.99 10.09L286.99 10.09L286.99 10.09Q287.06 10.02 287.39 9.92L287.39 9.92L287.39 9.92Q287.73 9.81 288.22 9.70L288.22 9.70L288.22 9.70Q288.43 9.16 288.57 8.75L288.57 8.75L288.57 8.75Q288.72 8.34 288.83 7.99L288.83 7.99L288.83 7.99Q288.95 7.63 289.04 7.29L289.04 7.29L289.04 7.29Q289.13 6.94 289.21 6.54L289.21 6.54L289.21 6.54Q288.72 6.51 288.44 6.27L288.44 6.27L288.44 6.27Q288.16 6.02 288.16 5.63L288.16 5.63L288.16 5.63Q288.16 5.52 288.20 5.36L288.20 5.36L288.20 5.36Q288.23 5.21 288.27 5.10L288.27 5.10L288.27 5.10Q288.55 5.14 288.81 5.15L288.81 5.15L288.81 5.15Q289.07 5.17 289.49 5.17L289.49 5.17L289.49 5.17Q290.37 5.17 291.14 5.12L291.14 5.12L291.14 5.12Q291.91 5.07 292.54 5.01L292.54 5.01L292.54 5.01Q293.16 4.96 293.61 4.91L293.61 4.91L293.61 4.91Q294.06 4.86 294.29 4.86L294.29 4.86L294.29 4.86Q294.62 4.86 294.87 5.19L294.87 5.19L294.87 5.19Q295.12 5.53 295.25 6.15L295.25 6.15L295.25 6.15Q294.81 6.10 294.54 6.09L294.54 6.09L294.54 6.09Q294.27 6.08 294.06 6.08L294.06 6.08L294.06 6.08Q293.29 6.08 292.65 6.15L292.65 6.15L292.65 6.15Q292.01 6.23 291.42 6.31L291.42 6.31L291.42 6.31Q291.34 6.44 291.24 6.64L291.24 6.64L291.24 6.64Q291.13 6.83 290.96 7.18L290.96 7.18L290.96 7.18Q290.79 7.53 290.55 8.06L290.55 8.06L290.55 8.06Q290.30 8.60 289.95 9.39L289.95 9.39L289.95 9.39Q290.49 9.31 290.95 9.26L290.95 9.26L290.95 9.26Q291.42 9.21 291.75 9.21Z"></path></g></svg>